<svg width="77" height="90" viewBox="0 0 77 90" fill="none" xmlns="http://www.w3.org/2000/svg">
<path d="M0 29C0 26.2386 2.23858 24 5 24H36V34H5C2.23858 34 0 31.7614 0 29V29Z" fill="#4F5A9C"/>
<path d="M15 61C15 58.2386 17.2386 56 20 56H36V66H20C17.2386 66 15 63.7614 15 61V61Z" fill="#6773B0"/>
<path d="M6 45C6 42.2386 8.23858 40 11 40H36V50H11C8.23858 50 6 47.7614 6 45V45Z" fill="#4F5A9C"/>
<path d="M60.7623 66L52.7823 50.76H52.7223V66H39.4023V23.52H59.2023C62.6423 23.52 65.5823 24.14 68.0223 25.38C70.4623 26.58 72.2823 28.24 73.4823 30.36C74.7223 32.44 75.3423 34.8 75.3423 37.44C75.3423 40.28 74.5423 42.8 72.9423 45C71.3823 47.2 69.1223 48.78 66.1623 49.74L75.4023 66H60.7623ZM52.7223 41.88H58.0023C59.2823 41.88 60.2423 41.6 60.8823 41.04C61.5223 40.44 61.8423 39.52 61.8423 38.28C61.8423 37.16 61.5023 36.28 60.8223 35.64C60.1823 35 59.2423 34.68 58.0023 34.68H52.7223V41.88Z" fill="#4F5A9C"/>
</svg>
